<?xml version="1.0" standalone="no"?>
<!DOCTYPE svg PUBLIC "-//W3C//DTD SVG 20010904//EN"
 "http://www.w3.org/TR/2001/REC-SVG-20010904/DTD/svg10.dtd">
<svg version="1.0" xmlns="http://www.w3.org/2000/svg"
 width="1080.000000pt" height="1080.000000pt" viewBox="0 0 1080.000000 1080.000000"
 preserveAspectRatio="xMidYMid meet">
<metadata>
Created by potrace 1.16, written by Peter Selinger 2001-2019
</metadata>
<g transform="translate(0.000000,1080.000000) scale(0.100000,-0.100000)"
fill="#c2f7ff" stroke="none">
<path d="M4686 9793 c-31 -31 45 -318 93 -347 5 -3 42 17 84 44 41 27 91 57
111 66 20 10 36 21 36 25 0 33 -304 232 -324 212z"/>
<path d="M6081 9769 c-13 -5 -35 -17 -50 -28 -21 -15 -104 -49 -205 -85 -16
-5 -3 -16 65 -57 46 -27 110 -70 142 -95 32 -25 65 -48 72 -50 16 -7 42 100
51 210 6 66 5 75 -15 95 -23 23 -26 24 -60 10z"/>
<path d="M5710 9598 c-25 -4 -92 -5 -150 -2 -89 5 -114 3 -162 -14 -80 -28
-198 -106 -198 -131 0 -34 16 -32 76 9 86 59 139 73 243 68 65 -4 101 -12 148
-33 l62 -27 45 30 c25 16 64 32 86 36 48 7 51 20 10 41 -43 22 -108 32 -160
23z"/>
<path d="M5955 9421 c-48 -22 -67 -43 -59 -65 5 -14 18 -16 73 -14 61 3 66 5
65 26 -1 26 31 30 62 7 39 -30 82 -4 46 28 -48 42 -120 49 -187 18z"/>
<path d="M5405 9403 c-44 -23 -75 -54 -75 -75 0 -31 28 -33 55 -4 28 31 64 46
107 46 l30 0 -22 -18 c-32 -26 -17 -42 39 -42 126 0 147 33 52 82 -62 32 -137
37 -186 11z"/>
<path d="M4644 9188 c-43 -84 -57 -142 -58 -250 -1 -58 -4 -109 -8 -113 -10
-10 11 -64 43 -111 60 -89 290 -271 325 -257 29 11 8 38 -73 96 -82 58 -83 59
-104 130 -36 121 -58 245 -71 395 -12 152 -22 172 -54 110z"/>
<path d="M5905 9170 c-69 -10 -218 -49 -229 -60 -14 -14 14 -69 49 -96 17 -13
55 -28 84 -34 28 -5 62 -15 74 -21 43 -23 167 -142 167 -160 0 -25 -35 -111
-62 -154 -14 -21 -43 -46 -72 -60 -126 -63 -314 -9 -507 145 -60 48 -79 54
-79 24 0 -26 139 -132 242 -185 147 -74 267 -75 411 -1 4 2 7 -3 7 -12 0 -28
38 -56 74 -56 47 0 66 9 66 30 0 16 -7 18 -42 17 -36 -2 -44 2 -57 25 -14 24
-13 30 18 91 18 35 35 82 38 104 4 34 13 46 49 71 57 41 94 113 94 184 0 132
-106 180 -325 148z"/>
<path d="M6139 8448 c0 -2 -2 -33 -4 -70 -6 -129 -58 -243 -131 -288 -57 -36
-181 -40 -294 -10 -112 30 -254 93 -396 175 -81 47 -119 64 -126 57 -20 -20 0
-39 108 -102 127 -74 239 -127 349 -165 106 -36 258 -45 332 -21 130 43 210
184 201 356 -2 52 -6 65 -20 68 -10 2 -18 2 -19 0z"/>
<path d="M4581 8355 c-40 -8 -77 -17 -81 -22 -7 -7 -61 -275 -57 -280 1 0 63
38 138 85 75 48 174 107 220 131 105 55 123 69 108 88 -15 17 -226 16 -328 -2z"/>
<path d="M6425 8148 c-37 -82 -59 -248 -34 -263 6 -4 33 18 60 48 27 30 74 71
104 92 l55 36 -55 51 c-31 28 -67 60 -81 70 l-24 20 -25 -54z"/>
<path d="M6273 7973 c-23 -8 -14 -34 27 -80 113 -129 248 -374 314 -573 l35
-105 -22 -3 c-12 -2 -29 -6 -37 -9 -8 -4 -54 -5 -102 -4 l-86 3 -8 -79 c-13
-137 38 -529 73 -564 17 -17 32 -2 38 39 30 197 60 313 116 458 l39 101 53 7
c28 3 122 6 208 6 l156 0 -5 -124 c-5 -138 18 -310 43 -320 20 -7 32 13 40 69
11 77 52 209 92 296 l36 79 86 -1 c47 -1 131 -4 185 -8 l100 -6 2 -155 c3
-181 20 -275 49 -275 16 0 22 13 35 80 19 95 31 134 72 238 36 93 31 92 177
19 98 -48 202 -118 305 -204 59 -49 78 -55 84 -25 9 43 -271 244 -425 306 -56
22 -61 26 -49 40 8 9 19 36 26 60 6 24 23 69 36 99 13 30 23 56 22 58 -2 1
-45 5 -95 9 l-93 8 0 -65 c0 -35 6 -86 13 -114 l13 -50 -71 14 c-51 10 -203
15 -567 19 -416 4 -498 7 -498 19 0 8 -14 58 -31 111 -59 186 -177 404 -306
563 -49 60 -62 70 -80 63z"/>
<path d="M6830 7816 c-5 -14 -17 -54 -26 -88 -21 -78 -26 -279 -7 -285 7 -3
17 6 22 19 5 13 21 56 36 95 17 47 42 90 71 122 l44 49 -65 57 -65 57 -10 -26z"/>
<path d="M5497 7652 c-84 -140 -150 -393 -158 -602 -2 -75 -1 -80 16 -80 9 0
33 38 60 93 62 127 165 283 262 396 94 109 101 86 -54 189 l-92 62 -34 -58z"/>
<path d="M4550 7633 c-78 -4 -189 -23 -195 -33 -6 -10 -55 -247 -55 -267 0
-10 15 -4 48 20 49 35 219 138 335 201 63 35 83 62 55 70 -22 7 -131 12 -188
9z"/>
<path d="M7192 7536 c-14 -22 -5 -143 17 -209 36 -106 51 -107 90 -9 12 29 32
75 47 103 14 28 24 52 22 54 -2 1 -40 18 -86 38 -58 24 -84 31 -90 23z"/>
<path d="M5918 7413 c-42 -48 -101 -154 -122 -223 -31 -98 -49 -220 -34 -237
14 -18 20 -12 74 68 55 83 164 195 235 241 27 17 49 34 49 38 0 6 -174 130
-183 130 -2 0 -11 -8 -19 -17z"/>
<path d="M8400 7345 c0 -52 32 -250 42 -263 16 -19 32 1 53 68 20 61 57 141
86 181 l18 26 -52 7 c-29 3 -73 6 -99 6 -44 0 -48 -2 -48 -25z"/>
<path d="M4275 7087 c-6 -14 10 -235 17 -243 2 -2 49 7 104 21 54 13 169 37
254 52 190 35 199 45 78 93 -88 35 -256 73 -375 85 -59 6 -74 4 -78 -8z"/>
<path d="M4913 6694 c-3 -8 -2 -19 3 -23 30 -28 658 -362 670 -357 30 11 8 40
-56 76 -418 232 -581 320 -594 320 -9 0 -19 -7 -23 -16z"/>
<path d="M4326 6643 c3 -15 29 -98 57 -183 l52 -155 50 5 c96 10 560 3 634 -9
56 -9 77 -9 87 0 18 15 7 29 -61 79 -185 134 -490 247 -773 285 l-53 7 7 -29z"/>
<path d="M4660 5865 c0 -9 171 -281 194 -310 21 -25 21 -25 76 -10 77 21 349
45 513 45 119 0 138 2 144 17 25 66 -334 187 -693 233 -87 11 -176 22 -196 25
-21 3 -38 3 -38 0z"/>
<path d="M6802 4678 c-16 -91 -71 -256 -113 -340 -119 -235 -315 -405 -554
-477 l-70 -21 -28 -133 c-15 -72 -28 -142 -27 -153 0 -25 -6 -23 216 -69 88
-18 179 -42 202 -54 54 -28 76 -69 70 -135 -4 -44 -17 -70 -100 -196 -53 -80
-119 -188 -147 -241 -137 -258 -157 -444 -51 -472 63 -17 1229 6 1496 29 l62
5 11 44 c16 65 13 144 -8 190 -24 55 -71 91 -139 111 -85 25 -293 14 -492 -25
-165 -33 -250 -39 -250 -19 0 20 115 125 310 282 375 303 517 443 586 581 34
67 35 73 29 140 -12 125 -59 230 -157 347 -53 64 -173 163 -435 361 -120 91
-258 199 -307 241 -48 42 -89 76 -90 76 -1 0 -8 -33 -14 -72z"/>
<path d="M4168 4198 l-67 -30 53 -67 c29 -36 67 -87 84 -113 l32 -47 68 31
c37 16 68 31 70 33 6 6 -151 225 -162 224 -6 0 -41 -14 -78 -31z"/>
<path d="M3853 4025 c-28 -19 -54 -39 -58 -45 -10 -17 50 -113 77 -122 37 -13
76 7 95 48 18 36 18 36 -14 92 -17 31 -35 58 -39 59 -5 2 -32 -13 -61 -32z"/>
<path d="M3558 3763 l-56 -58 71 -85 c40 -47 84 -101 98 -120 15 -19 29 -33
30 -30 2 3 26 29 53 57 l49 52 -56 78 c-31 43 -74 97 -94 121 l-38 43 -57 -58z"/>
<path d="M4815 3698 c-10 -60 -35 -291 -31 -295 2 -2 37 5 77 16 109 30 290
51 502 58 104 3 190 11 194 16 22 35 -210 135 -432 186 -84 19 -265 51 -292
51 -7 0 -15 -15 -18 -32z"/>
<path d="M3271 3415 c-57 -76 -58 -81 -23 -118 16 -18 62 -75 102 -127 40 -52
75 -93 79 -91 3 3 23 34 43 69 l38 64 -22 32 c-32 46 -170 226 -173 226 -1 0
-21 -25 -44 -55z"/>
<path d="M1610 3069 c-52 -50 -114 -105 -137 -122 -24 -17 -43 -33 -43 -36 0
-3 22 -31 48 -60 l49 -55 79 64 c43 35 112 93 153 129 l73 66 -56 52 c-31 29
-60 53 -64 53 -4 -1 -50 -42 -102 -91z"/>
<path d="M3032 3094 c-24 -31 -45 -61 -48 -68 -3 -7 12 -48 32 -92 20 -43 56
-126 79 -184 23 -58 48 -105 55 -105 7 0 35 25 62 56 l49 56 -42 112 c-46 123
-118 273 -134 278 -5 2 -29 -22 -53 -53z"/>
<path d="M5215 3090 c-16 -25 77 -113 215 -205 98 -65 322 -177 333 -166 5 5
28 65 53 135 l44 126 -26 0 c-62 0 -252 34 -421 75 -206 51 -190 48 -198 35z"/>
<path d="M2012 2790 c-41 -38 -110 -97 -155 -131 -45 -34 -83 -64 -84 -68 -2
-3 27 -25 63 -49 l65 -43 72 55 c97 74 240 198 244 212 3 9 -114 95 -128 94
-2 -1 -37 -32 -77 -70z"/>
<path d="M2710 2770 c-25 -17 -63 -37 -85 -45 l-40 -16 -26 -107 c-14 -59 -37
-135 -51 -169 -25 -62 -25 -63 -5 -63 42 0 147 22 156 33 17 21 106 367 99
387 -1 5 -23 -4 -48 -20z"/>
<path d="M4760 2251 c0 -21 62 -86 136 -142 64 -49 215 -139 232 -139 18 0
194 172 185 180 -4 4 -48 13 -98 20 -49 7 -169 32 -265 56 -96 24 -178 44
-182 44 -4 0 -8 -8 -8 -19z"/>
</g>
</svg>
